<svg width="50" height="50" viewBox="0 0 50 50" fill="none" xmlns="http://www.w3.org/2000/svg">
<path fill-rule="evenodd" clip-rule="evenodd" d="M25 49C38.2548 49 49 38.2548 49 25C49 11.7452 38.2548 1 25 1C11.7452 1 1 11.7452 1 25C1 38.2548 11.7452 49 25 49Z" stroke="#1A1A1A"/>
<path d="M31.6748 13H32.3333C33.4379 13 34.3333 13.8954 34.3333 15V35C34.3333 36.1046 33.4379 37 32.3333 37H17.6666C16.5621 37 15.6666 36.1046 15.6666 35V15C15.6666 13.8954 16.5621 13 17.6666 13H18.614" stroke="#1A1A1A" stroke-linejoin="round"/>
<path d="M22.3333 26.3333H30.3333" stroke="#1A1A1A" stroke-linejoin="round"/>
<path d="M22.3333 23H30.3333" stroke="#1A1A1A" stroke-linejoin="round"/>
<path d="M30.3333 29.6666H22.3333" stroke="#1A1A1A" stroke-linejoin="round"/>
<path d="M19.6666 26.3333H21" stroke="#1A1A1A" stroke-linejoin="round"/>
<path d="M19.6666 22.9999H21" stroke="#1A1A1A" stroke-linejoin="round"/>
<path d="M21 29.6667H19.6666" stroke="#1A1A1A" stroke-linejoin="round"/>
<path fill-rule="evenodd" clip-rule="evenodd" d="M19.6666 13.3333C19.6666 13.8856 20.1143 14.3333 20.6666 14.3333H29.3333C29.8856 14.3333 30.3333 13.8856 30.3333 13.3333V12.6666C30.3333 12.1143 29.8856 11.6666 29.3333 11.6666H20.6666C20.1143 11.6666 19.6666 12.1143 19.6666 12.6666V13.3333Z" stroke="#1A1A1A" stroke-linejoin="round"/>
<path d="M22.3333 20.3333H30.3333" stroke="#1A1A1A" stroke-linejoin="round"/>
<path d="M19.6666 20.3333H21" stroke="#1A1A1A" stroke-linejoin="round"/>
</svg>
