<svg width="50" height="50" viewBox="0 0 50 50" fill="none" xmlns="http://www.w3.org/2000/svg">
<path fill-rule="evenodd" clip-rule="evenodd" d="M25 49C38.2548 49 49 38.2548 49 25C49 11.7452 38.2548 1 25 1C11.7452 1 1 11.7452 1 25C1 38.2548 11.7452 49 25 49Z" stroke="#1A1A1A"/>
<path d="M27.2135 13V20.5429L32.4239 32.1431C33.444 34.4142 31.8177 37 29.3694 37H21.6973C19.2491 37 17.6227 34.4142 18.6429 32.1431L23.8533 20.5429V13" stroke="#1A1A1A"/>
<path d="M24.3334 29.8H31.5334" stroke="#1A1A1A"/>
<path d="M24.3334 27.4H26.7334" stroke="#1A1A1A"/>
<path d="M24.3334 32.2H26.7334" stroke="#1A1A1A"/>
<rect x="21.9333" y="13" width="2.4" height="1.2" fill="#005450"/>
<rect x="26.7334" y="13" width="2.4" height="1.2" fill="#005450"/>
</svg>
