<svg width="50" height="50" viewBox="0 0 50 50" fill="none" xmlns="http://www.w3.org/2000/svg">
<path fill-rule="evenodd" clip-rule="evenodd" d="M25 49C38.2548 49 49 38.2548 49 25C49 11.7452 38.2548 1 25 1C11.7452 1 1 11.7452 1 25C1 38.2548 11.7452 49 25 49Z" stroke="#1A1A1A"/>
<path d="M16.3856 33.5981L13 36.9837" stroke="#1A1A1A" stroke-linecap="round" stroke-linejoin="round"/>
<path d="M26.1491 28.4016L24.2841 26.4812" stroke="#1A1A1A" stroke-linejoin="round"/>
<path d="M24.2843 30.3219L22.4193 28.4015" stroke="#1A1A1A" stroke-linejoin="round"/>
<path d="M22.4195 32.242L20.5544 30.3215" stroke="#1A1A1A" stroke-linejoin="round"/>
<path fill-rule="evenodd" clip-rule="evenodd" d="M32.0257 18.2887C31.1208 19.1936 29.654 19.1936 28.7491 18.2887C27.8442 17.3838 27.8442 15.9169 28.7491 15.012C29.654 14.1071 31.1208 14.1071 32.0257 15.012C32.9306 15.9169 32.9306 17.3838 32.0257 18.2887V18.2887Z" stroke="#1A1A1A" stroke-linejoin="round"/>
<path d="M25.2675 22.8398L28.2962 25.7968" stroke="#1A1A1A" stroke-width="1.2" stroke-linejoin="round"/>
<path d="M32.4344 17.879L28.7476 21.5658" stroke="#1A1A1A" stroke-width="1.2" stroke-linejoin="round"/>
<path fill-rule="evenodd" clip-rule="evenodd" d="M15.9564 33.8357C15.9564 33.8357 16.7246 31.8382 15.9564 28.9196C15.917 28.7713 25.3785 19.4987 25.3785 19.4987C25.8292 19.048 26.5661 19.048 27.0168 19.4987L30.2935 22.7753C30.7442 23.226 30.7442 23.9629 30.2935 24.4136L20.8725 33.8357C17.7488 32.8625 15.9564 33.8357 15.9564 33.8357V33.8357Z" stroke="#1A1A1A" stroke-linejoin="round"/>
<path fill-rule="evenodd" clip-rule="evenodd" d="M35.3047 21.5658C34.3998 22.4707 32.9329 22.4707 32.028 21.5658C31.1231 20.6609 31.1231 19.194 32.028 18.2891C32.9329 17.3842 34.3998 17.3842 35.3047 18.2891C36.2096 19.194 36.2096 20.6609 35.3047 21.5658V21.5658Z" stroke="#1A1A1A" stroke-linejoin="round"/>
</svg>
